<?xml version="1.0" encoding="utf-8"?>
<!-- Generator: Adobe Illustrator 26.5.0, SVG Export Plug-In . SVG Version: 6.00 Build 0)  -->
<svg version="1.1" id="Layer_1" xmlns="http://www.w3.org/2000/svg" xmlns:xlink="http://www.w3.org/1999/xlink" x="0px" y="0px"
	 viewBox="0 0 1028.8 1174.9" xml:space="preserve">
<g transform="translate(0.000000,2158.000000) scale(0.100000,-0.100000)">
	<path d="M2964.9,11045.8c-6-16,2024-1187.2,2087.9-1204.2c50.9-14,158.8-14,206.7,0
		c51.9,14,1760.4,1004.5,1760.4,1020.5l-1826.2,2897.6c1,25,1106.3,1898.2,1118.3,1895.2c-50.6,94.3,2479.1-3894.7,2423.4-3803.4
		l471.3,282.6c57.2-85.8-2604.2,4215.4-2544.2,4131.8c0,8,962.6,1647.5,974.5,1659.5l2646-4100.8c4,0,7,1043.4,7,2319.5
		c-40.9,2738.2,94.3,2253.3-136.7,2602.1c-41,36.9-4776,2765.9-4870.8,2807.8c-55,23.9-177.8,33.9-238.7,18.9
		c-628.1-316.8-4221.1-2437-4818.8-2770.8c-123.8-71.9-197.7-172.7-220.7-301.5c-15.4-9.9,4.4-3714.4,6-4473.3
		c473.5,732.9,2404,3728.5,2546.2,3933.1c452.9,602.5,1547.4,572.3,2279.6,522.2C4058.8,17234.4,662.8,11797.9,486.6,11503
		l512.2-273.6c-90.7-161.2,4485.5,7401.2,4394.4,7238.2c-128.9,21.9,1946.5,21.9,1951.1,15L2964.9,11045.8z"/>
</g>
</svg>
